<svg xmlns="http://www.w3.org/2000/svg" width="200.016" height="200" viewBox="0 0 200.016 200">
  <g id="SG_Logo_Black" data-name="SG Logo Black" transform="translate(-1461.949 3042.835)">
    <path id="Path_1" data-name="Path 1" d="M1544.5-3050.781c-3.809.25-5,.35-6.882.55a99.348,99.348,0,0,0-30.087,8.281,91.636,91.636,0,0,0-13.926,7.768,101.74,101.74,0,0,0-27.977,27.914,99.216,99.216,0,0,0-15.987,43.276,118.614,118.614,0,0,0-.574,17.8,99.155,99.155,0,0,0,14.226,46.149,102.244,102.244,0,0,0,25.941,28.551,98.674,98.674,0,0,0,47.148,18.959,79.214,79.214,0,0,0,12.677.7,78.048,78.048,0,0,0,12.614-.7,99.787,99.787,0,0,0,23.818-6.02,101.24,101.24,0,0,0,45.887-36.37,99.2,99.2,0,0,0,17.023-45.25,76.55,76.55,0,0,0,.562-11.828,78.549,78.549,0,0,0-.874-13.839,99.04,99.04,0,0,0-22.169-50.008,101.421,101.421,0,0,0-32.148-25.541,99.572,99.572,0,0,0-35.1-10.029,82.459,82.459,0,0,0-9.679-.412C1546.836-3050.818,1544.813-3050.793,1544.5-3050.781Zm9.43,8.168a91.58,91.58,0,0,1,32,7.569c2.011.874,6.545,3.16,8.43,4.247a91.636,91.636,0,0,1,20.346,15.737,91.25,91.25,0,0,1,23.967,43.876,88.525,88.525,0,0,1,2.186,20.371,75.958,75.958,0,0,1-.575,10.8,91.442,91.442,0,0,1-13.9,38.88,92.32,92.32,0,0,1-13.938,16.811,91.578,91.578,0,0,1-27.04,17.96,91.067,91.067,0,0,1-24.042,6.645,77.859,77.859,0,0,1-13.489.787,86.68,86.68,0,0,1-12.177-.912,91.954,91.954,0,0,1-29.475-9.567,90.446,90.446,0,0,1-21.607-15.824c-2-1.961-3.3-3.31-4.309-4.447a91.421,91.421,0,0,1-23.193-62.885,90.047,90.047,0,0,1,2.36-19.221,91.479,91.479,0,0,1,20.958-40.291c1-1.112,4.946-5.133,6.008-6.12,1.8-1.661,2.123-1.948,3.872-3.385a89.951,89.951,0,0,1,17.748-11.553,91.487,91.487,0,0,1,35.845-9.467C1546.524-3042.75,1551.782-3042.75,1553.93-3042.613Z" transform="translate(13 8)"/>
    <path id="Path_2" data-name="Path 2" d="M1829.585-2583.812c-.484.272-.429.215-2.686,2.587-1.135,1.181-2.077,2.168-2.1,2.191s-1.606-.6-3.544-1.374a34.811,34.811,0,0,0-15.007-3.11,42.365,42.365,0,0,0-8.376.488c-6.562,1.045-12.681,4.086-16.641,8.275a19.769,19.769,0,0,0-5.233,10.965,21.294,21.294,0,0,0,.277,6.129c1.26,4.847,4.652,8.945,9.677,11.715,3.281,1.8,6.534,2.883,15.6,5.2,9.11,2.327,16.807,4.6,16.724,4.949,0,.045-2.561,6.414-5.662,14.133l-5.649,14.053h-12.321l-1.523-.635a27.763,27.763,0,0,1-7.7-4.655,28.387,28.387,0,0,1-8.6-12.566c-.609-1.68-.886-2.134-1.412-2.282a1.183,1.183,0,0,0-1.3.386c-.236.386-.263,21.908-.028,22.465.291.68,1.26.794,2.091.238a41.853,41.853,0,0,0,3.17-3.462l2.645-3.122.36.227c.208.125.872.556,1.481.965a41.4,41.4,0,0,0,16.475,6.129,48.563,48.563,0,0,0,7.988.182c.858-.079,2.312-.26,3.226-.408a38.206,38.206,0,0,0,5.482-1.374c.319-.125,1.219-.159,4.694-.159h4.292v-1.93l-1.966-.012c-1.883,0-1.966-.011-1.648-.193a26.954,26.954,0,0,0,12.114-13.372,22.411,22.411,0,0,0,1.606-7.23v-.988h9.83v21.794h-11.906v1.93h47.624v-1.93l-6.05-.023-6.05-.034-10.632-26.448-10.632-26.448.042-8.071.028-8.07,15.575,20.955c16.682,22.442,19.285,25.926,30.568,41.1l7.31,9.819,2.45.034,2.45.023v-75.486H1918.6v-1.93h-26.166v1.93h11.906v27.776c0,27.028-.014,27.777-.249,27.448-1.564-2.088-41.242-55.326-41.823-56.11l-.776-1.044h-21.915l-.194-.489-.208-.477-.9-.034-.914-.033-.194.488-.208.488-1.468.034-1.481.034v1.919h1.038a4.274,4.274,0,0,1,1.038.068c0,.045-1.08,2.759-2.381,6.039l-2.4,5.959-.069-7.594c-.069-7.027-.083-7.628-.319-7.912A1.017,1.017,0,0,0,1829.585-2583.812Zm-21.459,2.542c6.645.682,12.377,3.542,15.976,7.992a21.521,21.521,0,0,1,4.513,9.694l.291,1.385-2.713,6.743-2.7,6.743-1.177-.443a70.682,70.682,0,0,0-10.037-2.611c-5.884-1.2-11.5-2.622-16.475-4.143a24.9,24.9,0,0,1-5.51-2.054,10.445,10.445,0,0,1-5.8-10.261,10.634,10.634,0,0,1,1.993-5.732c3.323-4.722,9.885-7.379,18.316-7.424C1805.995-2581.395,1807.49-2581.338,1808.127-2581.271Zm37.781,7.844-.014,6.845-2.755-6.811c-1.509-3.746-2.755-6.822-2.755-6.844s1.246-.023,2.769-.023h2.769Zm-7.088,26.018c3.6,8.8,6.548,16.016,6.548,16.04s-2.077.034-4.61.034h-4.61l-.152-1.4a18.5,18.5,0,0,0-6.7-12.565,23.126,23.126,0,0,0-2.381-1.7,4.417,4.417,0,0,1-1.066-.749c0-.08,1.4-3.633,3.115-7.912s3.115-7.844,3.129-7.923C1832.1-2563.812,1831.607-2565,1838.82-2547.409Zm-16.987,12.94a15.028,15.028,0,0,1,1.9,1.113c.886.624,2.215,1.873,2.09,1.963-.041.035-1.536.046-3.323.035l-3.267-.035.706-1.793a11.7,11.7,0,0,1,.789-1.782C1820.767-2534.968,1821.265-2534.741,1821.833-2534.469Zm5.593,5.948a14.384,14.384,0,0,1-.083,10.523,19.247,19.247,0,0,1-4.139,5.948,23.625,23.625,0,0,1-6.285,3.961l-1.121.477h-3.087c-2.575,0-3.073-.023-3.018-.159.042-.079,1.952-4.858,4.236-10.6s4.223-10.579,4.306-10.738l.138-.295h8.708Zm24.518,13.292c1.717,4.143,3.115,7.549,3.115,7.571s-1.523.045-3.392.045h-3.392l.014-8.207v-8.2l.277.625C1848.718-2523.049,1850.241-2519.371,1851.944-2515.228Z" transform="translate(-284.721 -399.247)"/>
  </g>
</svg>
